<svg width="31" height="31" viewBox="0 0 31 31" fill="none" xmlns="http://www.w3.org/2000/svg">
<g clip-path="url(#clip0_22_907)">
<path d="M9.8775 0.5H13.1V1.8475H11.225V3.195H13.1V4.5425H9.8775V0.5ZM13.7438 0.5H16.9675V1.6725H15.0925V1.90625H16.9675V4.60125H13.7438V3.37125H15.6188V3.13625H13.7438V0.5ZM17.6125 0.5H20.8338V1.6725H18.9588V1.90625H20.8338V4.60125H17.6125V3.37125H19.4875V3.13625H17.6125V0.5Z" fill="black"/>
<path fill-rule="evenodd" clip-rule="evenodd" d="M15.4888 30.5002L6.80875 28.0902L4.25 6.39648H26.75L24.1925 28.0877L15.4888 30.5002ZM9.30875 16.2165L9.5475 18.8765H18.7687L18.46 22.3265L15.4925 23.129H15.49L12.5275 22.329L12.3375 20.2077H9.66625L10.0388 24.3852L15.4888 25.8977L20.9475 24.3852L21.6125 16.9302L21.6775 16.2165L22.1575 10.8302H8.83L9.0725 13.4915H19.2425L19 16.2165H9.30875Z" fill="black"/>
</g>
<defs>
<clipPath id="clip0_22_907">
<rect width="30" height="30" fill="white" transform="translate(0.5 0.5)"/>
</clipPath>
</defs>
</svg>
