<svg width="35" height="35" viewBox="0 0 35 35" fill="none" xmlns="http://www.w3.org/2000/svg">
<path d="M13.65 11.1121C14.63 11.1121 15.4175 10.3246 15.4175 9.34465C15.4175 8.36465 14.63 7.57715 13.65 7.57715C12.67 7.57715 11.8825 8.36465 11.8825 9.34465C11.8825 10.3246 12.67 11.1121 13.65 11.1121Z" fill="#697565"/>
<path fill-rule="evenodd" clip-rule="evenodd" d="M17.2025 14.962C17.2025 13.072 15.61 11.707 13.65 11.707C11.69 11.707 10.0975 13.072 10.0975 14.962V15.8545C10.0975 16.012 10.1675 16.1695 10.2725 16.2745C10.3775 16.3795 10.535 16.4495 10.6925 16.4495H16.6075C16.765 16.4495 16.9225 16.3795 17.0275 16.2745C17.1325 16.1695 17.2025 16.012 17.2025 15.8545V14.962ZM10.0625 20.1245C10.0625 19.7764 10.2008 19.4426 10.4469 19.1965C10.6931 18.9503 11.0269 18.812 11.375 18.812H23.625C23.9731 18.812 24.3069 18.9503 24.5531 19.1965C24.7992 19.4426 24.9375 19.7764 24.9375 20.1245C24.9375 20.4726 24.7992 20.8065 24.5531 21.0526C24.3069 21.2987 23.9731 21.437 23.625 21.437H11.375C11.0269 21.437 10.6931 21.2987 10.4469 21.0526C10.2008 20.8065 10.0625 20.4726 10.0625 20.1245ZM10.0625 25.3745C10.0625 25.0264 10.2008 24.6926 10.4469 24.4465C10.6931 24.2003 11.0269 24.062 11.375 24.062H23.625C23.9731 24.062 24.3069 24.2003 24.5531 24.4465C24.7992 24.6926 24.9375 25.0264 24.9375 25.3745C24.9375 25.7226 24.7992 26.0565 24.5531 26.3026C24.3069 26.5488 23.9731 26.687 23.625 26.687H11.375C11.0269 26.687 10.6931 26.5488 10.4469 26.3026C10.2008 26.0565 10.0625 25.7226 10.0625 25.3745Z" fill="#697565"/>
<path fill-rule="evenodd" clip-rule="evenodd" d="M4.375 4.375C4.375 2.4465 5.9465 0.875 7.875 0.875H19.5825C20.566 0.875 21.4935 1.2915 22.1462 1.97925L22.1568 1.9915L29.7027 10.22C30.331 10.8903 30.625 11.767 30.625 12.6V30.625C30.625 32.5535 29.0535 34.125 27.125 34.125H7.875C5.9465 34.125 4.375 32.5535 4.375 30.625V4.375ZM19.5808 4.375H7.875V30.625H27.125V12.586L19.607 4.38725L19.6018 4.3855L19.5808 4.375Z" fill="#697565"/>
<path fill-rule="evenodd" clip-rule="evenodd" d="M19.5825 0.875C20.0466 0.875 20.4918 1.05937 20.82 1.38756C21.1481 1.71575 21.3325 2.16087 21.3325 2.625V10.85H28.875C29.1048 10.85 29.3324 10.8953 29.5447 10.9832C29.757 11.0712 29.95 11.2001 30.1125 11.3626C30.275 11.5251 30.4039 11.718 30.4918 11.9303C30.5798 12.1426 30.625 12.3702 30.625 12.6C30.625 12.8298 30.5798 13.0574 30.4918 13.2697C30.4039 13.482 30.275 13.6749 30.1125 13.8374C29.95 13.9999 29.757 14.1288 29.5447 14.2168C29.3324 14.3047 29.1048 14.35 28.875 14.35H19.5825C19.1184 14.35 18.6733 14.1656 18.3451 13.8374C18.0169 13.5092 17.8325 13.0641 17.8325 12.6V2.625C17.8325 2.16087 18.0169 1.71575 18.3451 1.38756C18.6733 1.05937 19.1184 0.875 19.5825 0.875Z" fill="#697565"/>
</svg>
