<svg width="35" height="36" viewBox="0 0 35 36" fill="none" xmlns="http://www.w3.org/2000/svg">
<path opacity="0.6" d="M17.0143 3.41699H12.1522C10.8629 3.41699 9.62643 3.92917 8.71475 4.84085C7.80307 5.75253 7.29089 6.98903 7.29089 8.27835C7.29089 9.56766 7.80307 10.8042 8.71475 11.7158C9.62643 12.6275 10.8629 13.1397 12.1522 13.1397H17.0143V3.41699Z" fill="black"/>
<path opacity="0.4" d="M17.0143 13.1396H12.1523C10.8631 13.1396 9.62681 13.6517 8.71527 14.5633C7.80373 15.4748 7.29163 16.7112 7.29163 18.0003C7.29163 19.2894 7.80373 20.5257 8.71527 21.4373C9.62681 22.3488 10.8631 22.8609 12.1523 22.8609H17.0143V13.1396Z" fill="black"/>
<path d="M26.7356 18C26.7356 19.2893 26.2235 20.5258 25.3118 21.4375C24.4001 22.3492 23.1636 22.8614 21.8743 22.8614C20.585 22.8614 19.3485 22.3492 18.4368 21.4375C17.5251 20.5258 17.0129 19.2893 17.0129 18C17.0129 16.7107 17.5251 15.4742 18.4368 14.5625C19.3485 13.6508 20.585 13.1387 21.8743 13.1387C23.1636 13.1387 24.4001 13.6508 25.3118 14.5625C26.2235 15.4742 26.7356 16.7107 26.7356 18Z" fill="black"/>
<path opacity="0.2" d="M12.1523 22.8618H17.0143V27.7224C17.0141 28.6837 16.7288 29.6232 16.1946 30.4223C15.6604 31.2214 14.9012 31.8442 14.0131 32.2119C13.125 32.5796 12.1478 32.6757 11.2051 32.4881C10.2624 32.3005 9.39642 31.8376 8.71674 31.158C8.03705 30.4783 7.57415 29.6123 7.38656 28.6696C7.19896 27.7269 7.2951 26.7497 7.66281 25.8616C8.03052 24.9735 8.65329 24.2143 9.45239 23.6801C10.2515 23.1459 11.191 22.8621 12.1523 22.8618Z" fill="black"/>
<path opacity="0.8" d="M17.0129 3.41699H21.8736C23.1629 3.41699 24.3994 3.92917 25.3111 4.84085C26.2227 5.75253 26.7349 6.98903 26.7349 8.27835C26.7349 9.56766 26.2227 10.8042 25.3111 11.7158C24.3994 12.6275 23.1629 13.1397 21.8736 13.1397H17.0129V3.41699Z" fill="black"/>
</svg>
