<svg width="35" height="35" viewBox="0 0 35 35" fill="none" xmlns="http://www.w3.org/2000/svg">
<path d="M9.854 2.18944L5.83337 26.9797L13.8148 7.02382L11.2219 1.97361C11.1517 1.83721 11.0403 1.72643 10.9035 1.65702C10.7667 1.58762 10.6115 1.56313 10.4599 1.58704C10.3084 1.61094 10.1683 1.68203 10.0595 1.79019C9.9507 1.89835 9.87879 2.03806 9.854 2.18944ZM16.8642 6.29757L5.83337 26.9797L20.1834 10.1359L18.1432 6.31069C18.0817 6.19528 17.9902 6.09854 17.8785 6.0306C17.7667 5.96267 17.6388 5.92603 17.508 5.92454C17.3772 5.92305 17.2485 5.95676 17.1352 6.02213C17.0219 6.0875 16.9283 6.18359 16.8642 6.29757ZM15.9542 33.3044L5.83337 26.9797L25.2438 8.26194C25.3415 8.17264 25.4616 8.11161 25.5913 8.0854C25.7211 8.05918 25.8555 8.06877 25.9802 8.11313C26.1049 8.1575 26.2151 8.23496 26.2992 8.33722C26.3832 8.43948 26.4378 8.56268 26.4571 8.69361L29.1667 26.9797L19.0459 33.3044C18.5823 33.5942 18.0467 33.7478 17.5 33.7478C16.9534 33.7478 16.4178 33.5942 15.9542 33.3044Z" fill="black"/>
</svg>
