<svg width="35" height="36" viewBox="0 0 35 36" fill="none" xmlns="http://www.w3.org/2000/svg">
<path d="M11.8679 12.7353V18.5687M8.95125 15.652H14.7846M23.3785 6.16846H11.6229C9.60421 6.16884 7.66831 6.97104 6.24101 8.39862C4.8137 9.8262 4.01187 11.7622 4.01187 13.781V25.8341C4.01187 28.8601 7.70583 30.333 9.78979 28.1397L14.1298 23.5693H20.8731L25.0658 28.6151C27.0696 31.0272 30.991 29.6097 30.991 26.4757V13.7795C30.9907 11.761 30.1887 9.82537 28.7614 8.39811C27.3341 6.97084 25.397 6.16884 23.3785 6.16846Z" stroke="white" stroke-width="1.5" stroke-linecap="round" stroke-linejoin="round"/>
<path d="M21.3821 15.652C22.1875 15.652 22.8404 14.9991 22.8404 14.1937C22.8404 13.3883 22.1875 12.7354 21.3821 12.7354C20.5767 12.7354 19.9237 13.3883 19.9237 14.1937C19.9237 14.9991 20.5767 15.652 21.3821 15.652Z" fill="white"/>
<path d="M24.5904 18.8603C25.3958 18.8603 26.0487 18.2074 26.0487 17.4019C26.0487 16.5965 25.3958 15.9436 24.5904 15.9436C23.785 15.9436 23.1321 16.5965 23.1321 17.4019C23.1321 18.2074 23.785 18.8603 24.5904 18.8603Z" fill="white"/>
</svg>
