<svg width="35" height="35" viewBox="0 0 35 35" fill="none" xmlns="http://www.w3.org/2000/svg">
<g clip-path="url(#clip0_22_933)">
<path fill-rule="evenodd" clip-rule="evenodd" d="M18.8927 1.30184C18.7098 1.11884 18.4927 0.973675 18.2538 0.874632C18.0148 0.775588 17.7587 0.724609 17.5 0.724609C17.2413 0.724609 16.9852 0.775588 16.7462 0.874632C16.5072 0.973675 16.2901 1.11884 16.1073 1.30184L12.0166 5.39538C12.336 5.69871 12.6437 5.99329 12.8041 6.15371L16.0854 9.43496C16.6977 9.14253 17.3856 9.04712 18.0544 9.16186C18.7231 9.27661 19.3399 9.59586 19.8197 10.0757C20.2995 10.5555 20.6187 11.1722 20.7335 11.841C20.8482 12.5098 20.7528 13.1977 20.4604 13.81L22.2833 15.6329C22.9818 15.2991 23.7757 15.223 24.5248 15.4181C25.274 15.6131 25.93 16.0667 26.377 16.6987C26.824 17.3307 27.0331 18.1004 26.9675 18.8717C26.9019 19.643 26.5656 20.3663 26.0183 20.9137C25.4709 21.461 24.7476 21.7972 23.9763 21.8629C23.205 21.9285 22.4353 21.7194 21.8033 21.2724C21.1713 20.8254 20.7177 20.1694 20.5227 19.4202C20.3276 18.6711 20.4037 17.8772 20.7375 17.1787L18.9146 15.3587C18.8103 15.4088 18.7032 15.4526 18.5937 15.49V20.9689C19.3239 21.2269 19.9393 21.7348 20.3313 22.4027C20.7232 23.0707 20.8664 23.8556 20.7355 24.6189C20.6046 25.3822 20.208 26.0746 19.616 26.5738C19.0239 27.073 18.2744 27.3468 17.5 27.3468C16.7256 27.3468 15.9761 27.073 15.384 26.5738C14.7919 26.0746 14.3954 25.3822 14.2645 24.6189C14.1336 23.8556 14.2768 23.0707 14.6687 22.4027C15.0606 21.7348 15.6761 21.2269 16.4062 20.9689V15.4914C15.9721 15.3381 15.5751 15.095 15.241 14.7782C14.907 14.4613 14.6434 14.0777 14.4673 13.6523C14.2912 13.2268 14.2067 12.7691 14.2191 12.3088C14.2316 11.8486 14.3408 11.3961 14.5396 10.9808L11.2583 7.69954C11.1504 7.59309 10.8354 7.2635 10.5 6.91059L1.30373 16.1068C1.12073 16.2897 0.975568 16.5068 0.876524 16.7457C0.77748 16.9847 0.726501 17.2409 0.726501 17.4995C0.726501 17.7582 0.77748 18.0144 0.876524 18.2533C0.975568 18.4923 1.12073 18.7094 1.30373 18.8923L16.1073 33.6943C16.2901 33.8773 16.5072 34.0225 16.7462 34.1215C16.9852 34.2206 17.2413 34.2716 17.5 34.2716C17.7587 34.2716 18.0148 34.2206 18.2538 34.1215C18.4927 34.0225 18.7098 33.8773 18.8927 33.6943L33.6962 18.8923C33.8792 18.7094 34.0244 18.4923 34.1234 18.2533C34.2225 18.0144 34.2735 17.7582 34.2735 17.4995C34.2735 17.2409 34.2225 16.9847 34.1234 16.7457C34.0244 16.5068 33.8792 16.2897 33.6962 16.1068L18.8927 1.30184ZM17.5 22.9683C17.2099 22.9683 16.9317 23.0835 16.7266 23.2886C16.5215 23.4938 16.4062 23.772 16.4062 24.062C16.4062 24.3521 16.5215 24.6303 16.7266 24.8354C16.9317 25.0406 17.2099 25.1558 17.5 25.1558C17.7901 25.1558 18.0683 25.0406 18.2734 24.8354C18.4785 24.6303 18.5937 24.3521 18.5937 24.062C18.5937 23.772 18.4785 23.4938 18.2734 23.2886C18.0683 23.0835 17.7901 22.9683 17.5 22.9683ZM18.5937 12.3954C18.5937 12.6855 18.4785 12.9637 18.2734 13.1688C18.0683 13.3739 17.7901 13.4891 17.5 13.4891C17.2099 13.4891 16.9317 13.3739 16.7266 13.1688C16.5215 12.9637 16.4062 12.6855 16.4062 12.3954C16.4062 12.1053 16.5215 11.8271 16.7266 11.622C16.9317 11.4169 17.2099 11.3016 17.5 11.3016C17.7901 11.3016 18.0683 11.4169 18.2734 11.622C18.4785 11.8271 18.5937 12.1053 18.5937 12.3954ZM22.6041 18.5933C22.6041 18.3032 22.7194 18.025 22.9245 17.8199C23.1296 17.6148 23.4078 17.4995 23.6979 17.4995C23.988 17.4995 24.2662 17.6148 24.4713 17.8199C24.6764 18.025 24.7916 18.3032 24.7916 18.5933C24.7916 18.8834 24.6764 19.1616 24.4713 19.3667C24.2662 19.5718 23.988 19.687 23.6979 19.687C23.4078 19.687 23.1296 19.5718 22.9245 19.3667C22.7194 19.1616 22.6041 18.8834 22.6041 18.5933Z" fill="black"/>
</g>
<defs>
<clipPath id="clip0_22_933">
<rect width="35" height="35" fill="white"/>
</clipPath>
</defs>
</svg>
