<svg width="35" height="35" viewBox="0 0 35 35" fill="none" xmlns="http://www.w3.org/2000/svg">
<path d="M17.5 2.91699C15.5848 2.91699 13.6885 3.2942 11.9192 4.02708C10.1498 4.75996 8.54217 5.83416 7.18799 7.18835C4.45308 9.92326 2.91663 13.6326 2.91663 17.5003C2.91663 23.9462 7.10204 29.4149 12.8916 31.3545C13.6208 31.4712 13.8541 31.0191 13.8541 30.6253V28.1607C9.81454 29.0357 8.95413 26.2066 8.95413 26.2066C8.28329 24.5149 7.33538 24.0628 7.33538 24.0628C6.00829 23.1587 7.43746 23.1878 7.43746 23.1878C8.89579 23.2899 9.66871 24.6899 9.66871 24.6899C10.9375 26.9066 13.0812 26.2503 13.9125 25.9003C14.0437 24.9524 14.4229 24.3107 14.8312 23.9462C11.5937 23.5816 8.19579 22.3274 8.19579 16.7712C8.19579 15.1524 8.74996 13.8545 9.69788 12.8191C9.55204 12.4545 9.04163 10.9378 9.84371 8.96908C9.84371 8.96908 11.0687 8.57533 13.8541 10.4566C15.0062 10.1357 16.2604 9.97533 17.5 9.97533C18.7395 9.97533 19.9937 10.1357 21.1458 10.4566C23.9312 8.57533 25.1562 8.96908 25.1562 8.96908C25.9583 10.9378 25.4479 12.4545 25.302 12.8191C26.25 13.8545 26.8041 15.1524 26.8041 16.7712C26.8041 22.342 23.3916 23.567 20.1395 23.9316C20.6645 24.3837 21.1458 25.2732 21.1458 26.6295V30.6253C21.1458 31.0191 21.3791 31.4857 22.1229 31.3545C27.9125 29.4003 32.0833 23.9462 32.0833 17.5003C32.0833 15.5852 31.7061 13.6889 30.9732 11.9195C30.2403 10.1502 29.1661 8.54254 27.8119 7.18835C26.4577 5.83416 24.8501 4.75996 23.0808 4.02708C21.3114 3.2942 19.4151 2.91699 17.5 2.91699Z" fill="black"/>
</svg>
