<svg width="35" height="35" viewBox="0 0 35 35" fill="none" xmlns="http://www.w3.org/2000/svg">
<path d="M17.5 2.91699C15.5849 2.91699 13.6886 3.2942 11.9192 4.02708C10.1499 4.75996 8.54223 5.83416 7.18805 7.18835C4.45314 9.92326 2.91669 13.6326 2.91669 17.5003C2.91669 23.9462 7.1021 29.4149 12.8917 31.3545C13.6209 31.4712 13.8542 31.0191 13.8542 30.6253V28.1607C9.8146 29.0357 8.95419 26.2066 8.95419 26.2066C8.28335 24.5149 7.33544 24.0628 7.33544 24.0628C6.00835 23.1587 7.43752 23.1878 7.43752 23.1878C8.89585 23.2899 9.66877 24.6899 9.66877 24.6899C10.9375 26.9066 13.0813 26.2503 13.9125 25.9003C14.0438 24.9524 14.4229 24.3107 14.8313 23.9462C11.5938 23.5816 8.19585 22.3274 8.19585 16.7712C8.19585 15.1524 8.75002 13.8545 9.69794 12.8191C9.5521 12.4545 9.04169 10.9378 9.84377 8.96908C9.84377 8.96908 11.0688 8.57533 13.8542 10.4566C15.0063 10.1357 16.2604 9.97533 17.5 9.97533C18.7396 9.97533 19.9938 10.1357 21.1459 10.4566C23.9313 8.57533 25.1563 8.96908 25.1563 8.96908C25.9584 10.9378 25.4479 12.4545 25.3021 12.8191C26.25 13.8545 26.8042 15.1524 26.8042 16.7712C26.8042 22.342 23.3917 23.567 20.1396 23.9316C20.6646 24.3837 21.1459 25.2732 21.1459 26.6295V30.6253C21.1459 31.0191 21.3792 31.4857 22.1229 31.3545C27.9125 29.4003 32.0834 23.9462 32.0834 17.5003C32.0834 15.5852 31.7061 13.6889 30.9733 11.9195C30.2404 10.1502 29.1662 8.54254 27.812 7.18835C26.4578 5.83416 24.8502 4.75996 23.0808 4.02708C21.3115 3.2942 19.4151 2.91699 17.5 2.91699Z" fill="#697565"/>
</svg>
