<svg width="31" height="31" viewBox="0 0 31 31" fill="none" xmlns="http://www.w3.org/2000/svg">
<g clip-path="url(#clip0_22_899)">
<mask id="mask0_22_899" style="mask-type:luminance" maskUnits="userSpaceOnUse" x="0" y="0" width="31" height="31">
<path d="M0.5 0.5H30.5V30.5H0.5V0.5Z" fill="white"/>
</mask>
<g mask="url(#mask0_22_899)">
<path d="M6.84998 0.5H8.20248V1.83625H9.43998V0.5H10.7925V4.545H9.43998V3.19125H8.20248V4.545H6.85123L6.84998 0.5ZM12.57 1.84125H11.38V0.5H15.1137V1.84125H13.9225V4.545H12.57V1.84125ZM15.7062 0.5H17.1162L17.9837 1.92125L18.85 0.5H20.26V4.545H18.9137V2.54L17.9837 3.97875H17.96L17.0287 2.54125V4.545H15.7062V0.5ZM20.9325 0.5H22.2862V3.20875H24.1862V4.54625H20.9325V0.5Z" fill="black"/>
<path fill-rule="evenodd" clip-rule="evenodd" d="M6.8075 28.0902L4.25 6.39648H26.75L24.1912 28.0877L15.4875 30.5002L6.8075 28.0902ZM11.9787 16.2152L11.7363 13.4902H21.9175L22.155 10.8302H8.83L9.5475 18.8765H18.7687L18.46 22.3265L15.4925 23.129H15.49L12.5275 22.329L12.3375 20.2077H9.665L10.0375 24.3852L15.4875 25.8977L20.9463 24.3852L21.6112 16.9302L21.6762 16.2165L11.9787 16.2152Z" fill="black"/>
</g>
</g>
<defs>
<clipPath id="clip0_22_899">
<rect width="30" height="30" fill="white" transform="translate(0.5 0.5)"/>
</clipPath>
</defs>
</svg>
