<svg width="35" height="36" viewBox="0 0 35 36" fill="none" xmlns="http://www.w3.org/2000/svg">
<path d="M15.1813 14.3252C15.6917 15.9877 16.2167 17.6502 16.7417 19.3419H13.65C14.175 17.6502 14.6709 15.9877 15.1813 14.3252Z" fill="black"/>
<path d="M24.7916 3.41699H10.2083C8.27442 3.41699 6.41976 4.18522 5.05231 5.55267C3.68485 6.92012 2.91663 8.77479 2.91663 10.7087V25.292C2.91663 27.2259 3.68485 29.0805 5.05231 30.448C6.41976 31.8154 8.27442 32.5837 10.2083 32.5837H24.7916C26.7255 32.5837 28.5802 31.8154 29.9476 30.448C31.3151 29.0805 32.0833 27.2259 32.0833 25.292V10.7087C32.0833 8.77479 31.3151 6.92012 29.9476 5.55267C28.5802 4.18522 26.7255 3.41699 24.7916 3.41699ZM21.1312 24.9712H18.8562C18.7655 24.9838 18.6734 24.9603 18.5998 24.9057C18.5262 24.8512 18.4769 24.77 18.4625 24.6795C18.1854 23.8628 17.8937 23.0462 17.6166 22.2149C17.6079 22.1628 17.5888 22.113 17.5604 22.0684C17.532 22.0238 17.4949 21.9854 17.4514 21.9555C17.4078 21.9256 17.3587 21.9047 17.3069 21.8941C17.2551 21.8836 17.2017 21.8836 17.15 21.8941H13.2708C13.2169 21.8814 13.161 21.8802 13.1066 21.8905C13.0522 21.9009 13.0006 21.9226 12.9552 21.9543C12.9098 21.9859 12.8716 22.0268 12.843 22.0742C12.8145 22.1216 12.7963 22.1745 12.7895 22.2295C12.5416 23.0462 12.2645 23.8337 12.0166 24.6503C12.0097 24.7019 11.9922 24.7514 11.9653 24.7959C11.9384 24.8404 11.9027 24.8789 11.8603 24.909C11.8179 24.9391 11.7698 24.9601 11.7189 24.9708C11.668 24.9815 11.6155 24.9816 11.5645 24.9712H9.56663C9.21663 24.9712 9.18746 24.9712 9.30413 24.6066L12.4541 15.5212C12.7458 14.6899 13.0375 13.8587 13.3 13.0274C13.3721 12.7809 13.4113 12.5259 13.4166 12.2691C13.4166 11.9628 13.5333 11.8899 13.8104 11.9045H16.5958C16.8 11.9045 16.902 11.9045 16.975 12.1816L20.5625 22.2878C20.8395 23.0753 21.1166 23.8482 21.3791 24.6212C21.4958 24.942 21.4812 24.9712 21.1312 24.9712ZM25.5937 24.7232C25.5937 24.9712 25.4916 25.0441 25.2583 25.0441H23.1583C22.8666 25.0441 22.7937 24.9274 22.7937 24.6649V15.5066C22.7937 15.2149 22.8812 15.0982 23.1875 15.1128H25.2437C25.477 15.1128 25.5937 15.1128 25.5937 15.4337C25.584 18.5253 25.584 21.6219 25.5937 24.7232ZM24.1354 14.0774C23.9264 14.0907 23.717 14.0588 23.5215 13.9839C23.326 13.9091 23.1488 13.793 23.0022 13.6435C22.8555 13.4941 22.7427 13.3148 22.6715 13.1179C22.6003 12.921 22.5724 12.7111 22.5895 12.5024C22.5914 12.295 22.6346 12.09 22.7166 11.8995C22.7986 11.709 22.9178 11.5367 23.0671 11.3928C23.2165 11.2488 23.3931 11.1361 23.5865 11.0612C23.7799 10.9863 23.9864 10.9508 24.1937 10.9566C24.3954 10.9559 24.5951 10.9971 24.7801 11.0776C24.9651 11.1581 25.1314 11.2761 25.2685 11.4241C25.4055 11.5721 25.5104 11.747 25.5764 11.9376C25.6424 12.1282 25.6682 12.3305 25.652 12.5316C25.664 12.7303 25.6351 12.9294 25.5672 13.1166C25.4993 13.3037 25.3937 13.475 25.2571 13.6198C25.1205 13.7646 24.9557 13.88 24.7728 13.9587C24.5899 14.0374 24.3928 14.0778 24.1937 14.0774H24.1354Z" fill="black"/>
<path d="M16.7417 19.3419H13.65C14.175 17.6502 14.6709 15.9877 15.1084 14.3252C15.6917 15.9877 16.2167 17.6502 16.7417 19.3419Z" fill="black"/>
</svg>
