<svg width="31" height="31" viewBox="0 0 31 31" fill="none" xmlns="http://www.w3.org/2000/svg">
<g clip-path="url(#clip0_22_910)">
<mask id="mask0_22_910" style="mask-type:luminance" maskUnits="userSpaceOnUse" x="0" y="0" width="31" height="31">
<path d="M0.5 0.5H30.5V30.5H0.5V0.5Z" fill="white"/>
</mask>
<g mask="url(#mask0_22_910)">
<path fill-rule="evenodd" clip-rule="evenodd" d="M0.5 0.5H30.5V30.5H0.5V0.5ZM23.4338 25.65C22.0425 25.65 21.2562 24.925 20.6525 23.9375L18.3612 25.2688C19.1887 26.9038 20.88 28.1513 23.4988 28.1513C26.1763 28.1513 28.17 26.7613 28.17 24.2225C28.17 21.8688 26.8175 20.8225 24.4225 19.7938L23.7175 19.4925C22.5075 18.9675 21.9838 18.6263 21.9838 17.78C21.9838 17.0963 22.5088 16.5725 23.3338 16.5725C24.1425 16.5725 24.6638 16.9138 25.1475 17.78L27.3425 16.3712C26.4138 14.7375 25.1263 14.1137 23.3338 14.1137C20.8163 14.1137 19.205 15.7238 19.205 17.8388C19.205 20.1325 20.555 21.2187 22.59 22.085L23.295 22.3875C24.5813 22.95 25.3475 23.2925 25.3475 24.2587C25.3475 25.0662 24.6013 25.65 23.4338 25.65ZM12.5088 25.6312C11.54 25.6312 11.1362 24.9687 10.6937 24.1812L8.39875 25.5712C9.06375 26.9787 10.3712 28.1463 12.6275 28.1463C15.1262 28.1463 16.8375 26.8175 16.8375 23.8987V14.2738H14.0187V23.8612C14.0187 25.27 13.4337 25.6312 12.5075 25.6312" fill="black"/>
</g>
</g>
<defs>
<clipPath id="clip0_22_910">
<rect width="30" height="30" fill="white" transform="translate(0.5 0.5)"/>
</clipPath>
</defs>
</svg>
