<svg width="45" height="46" viewBox="0 0 45 46" fill="none" xmlns="http://www.w3.org/2000/svg">
<g clip-path="url(#clip0_22_868)">
<path d="M13.5594 5.97696V11.4516L13.4975 11.5007C13.4608 11.5263 10.413 13.4275 6.71895 15.7281C3.02491 18.0287 0.00229975 19.9181 8.15765e-06 19.9276C-0.00457503 19.9369 1.92265 21.142 4.2784 22.6064L8.56368 25.269L8.56827 33.6701L8.57514 42.0713L12.6313 39.6305C14.9504 38.2362 16.7034 37.1945 16.7263 37.1992C16.7469 37.2062 20.0538 39.0724 24.0777 41.3473C28.0995 43.6244 31.4062 45.493 31.4245 45.4999C31.4521 45.5093 31.4566 44.7923 31.4613 40.0534L31.4682 34.5974L38.2329 30.4703C41.9544 28.2002 45 26.3363 45 26.3294C45 26.32 43.059 25.0658 40.6872 23.5384C38.3131 22.0132 36.3287 20.7356 36.2759 20.6982L36.1773 20.6304L36.1728 12.2153L36.1659 3.80019L31.8348 6.41372C29.2681 7.96223 27.4876 9.02259 27.4647 9.01557C27.4417 9.01091 24.3116 7.09338 20.5052 4.75311C16.6989 2.41286 13.58 0.5 13.5731 0.5C13.5662 0.5 13.5594 2.96405 13.5594 5.97696ZM22.5103 7.23585L30.3292 12.0378L30.3431 13.8666C30.3659 16.7627 30.4071 27.0137 30.3957 27.0254C30.3888 27.03 28.7022 26.0444 26.6466 24.8323L22.9091 22.6298V17.0501C22.9091 12.5984 22.9022 11.475 22.8816 11.4843C22.8656 11.4913 20.9979 12.6591 18.7316 14.0792C16.4651 15.4992 14.6043 16.6624 14.5997 16.6624C14.5952 16.6624 14.5906 13.4439 14.5906 9.51306V2.36381L14.6433 2.39651C14.6708 2.41518 18.2113 4.59197 22.5103 7.23585ZM35.1462 12.8086C35.1462 16.7395 35.1393 19.9554 35.1301 19.9554C35.1186 19.9554 34.2822 19.4207 33.267 18.7667L31.4223 17.5802L31.4085 16.952C31.3993 16.6063 31.3926 15.2259 31.3902 13.883L31.388 11.4423L29.9466 10.5547C29.1513 10.0666 28.5074 9.66488 28.5098 9.6602C28.5212 9.65087 35.1324 5.66166 35.1416 5.66166C35.1416 5.66166 35.1462 8.87779 35.1462 12.8086ZM13.5548 15.0321L13.5479 17.3279L11.0615 18.8858L8.57514 20.4437L8.56368 22.2281L8.55223 24.0125L5.72211 22.2514C4.16611 21.2845 2.68804 20.3666 2.43826 20.2101L1.98453 19.9276L7.75476 16.3329C10.9286 14.3571 13.5319 12.7385 13.5433 12.7385C13.5525 12.7385 13.5571 13.7709 13.5548 15.0321ZM21.8548 18.0124V22.632L17.455 25.3835L13.0552 28.137L13.4654 28.3847C16.63 30.2952 21.3279 33.1423 21.3255 33.1516C21.3255 33.1586 18.8346 34.6604 15.7914 36.4915C12.7458 38.3227 10.1105 39.9062 9.93634 40.0112L9.61782 40.2028V30.6221V21.0416L15.7203 17.2183C19.0752 15.1162 21.8274 13.3948 21.839 13.3948C21.8481 13.3925 21.8548 15.4712 21.8548 18.0124ZM37.5249 22.7699C41.7505 25.4862 42.9995 26.3013 42.9788 26.3223C42.9375 26.3597 27.5358 35.7534 27.4991 35.7627C27.4487 35.7768 22.6341 32.7709 22.6341 32.7289C22.6341 32.7008 21.4425 31.9698 18.8966 30.4283C16.8432 29.1858 15.1452 28.1558 15.1268 28.1417C15.0993 28.1207 15.8074 27.6699 18.7383 25.8342L22.3866 23.5547L26.8689 26.1962C29.3347 27.649 31.3788 28.8542 31.4085 28.8752L31.4613 28.9101L31.4475 26.8665C31.4406 25.743 31.4269 23.4776 31.42 21.8286L31.4062 18.8321L31.7249 19.0376C31.899 19.1498 34.5091 20.829 37.5249 22.7699ZM24.857 35.3984C26.2113 36.2416 27.357 36.9516 27.4029 36.9797L27.483 37.0288L28.9383 36.1412L30.3911 35.2561L30.398 37.3673C30.4002 38.5305 30.4002 40.4294 30.398 41.5901L30.3911 43.6991L24.0938 40.1351C20.6312 38.1755 17.7964 36.5617 17.7942 36.55C17.7942 36.5359 18.8072 35.9147 20.0469 35.1695C22.0566 33.9574 22.3064 33.815 22.3476 33.8383C22.3728 33.8546 23.5026 34.5577 24.857 35.3984Z" fill="white"/>
</g>
<defs>
<clipPath id="clip0_22_868">
<rect width="45" height="45" fill="white" transform="translate(0 0.5)"/>
</clipPath>
</defs>
</svg>
