<svg width="35" height="35" viewBox="0 0 35 35" fill="none" xmlns="http://www.w3.org/2000/svg">
<path d="M23.9258 8.27764C23.7552 8.27764 23.6414 8.3006 23.5266 8.32904V8.34654H23.5441C23.6239 8.4942 23.7552 8.60904 23.8569 8.74576C23.9367 8.89998 24.0045 9.05857 24.0789 9.21279L24.1019 9.18982C24.2386 9.09248 24.3075 8.93935 24.3075 8.70529C24.2506 8.63639 24.2386 8.5631 24.1883 8.49967C24.1314 8.40232 24.0056 8.35201 23.9258 8.27764ZM8.41422 27.52H7.06454C7.02395 25.3717 6.89295 23.226 6.67188 21.0887H6.66094L4.60469 27.52H3.57329L1.53344 21.0887H1.51594C1.35743 23.2292 1.2626 25.3739 1.23157 27.52H0.00109863C0.0677612 24.823 0.267431 22.1309 0.59938 19.4536H2.27391L4.22188 25.3784H4.23282L6.19829 19.4536H7.79297C8.14735 22.3936 8.35625 25.0824 8.41969 27.52H8.41422ZM14.2702 21.5678C13.7233 24.5526 12.9938 26.7237 12.1002 28.0734C11.3943 29.1161 10.6232 29.6382 9.78688 29.6397C9.56594 29.6397 9.29068 29.5711 8.9611 29.434V28.7165C9.12625 28.7395 9.31438 28.7559 9.52547 28.7559C9.91813 28.7559 10.232 28.6422 10.4716 28.4311C10.7559 28.1686 10.8985 27.8744 10.8992 27.5484C10.8992 27.3209 10.7909 26.8648 10.5634 26.1703L9.08797 21.5678H10.4158L11.4756 25.0087C11.7152 25.7951 11.818 26.3365 11.772 26.6494C12.3583 25.0995 12.763 23.402 12.9916 21.5678H14.2702ZM32.2481 27.52H28.4091V19.4536H29.7019V26.529H32.2481V27.52ZM27.4061 27.7147L25.9252 26.9851C26.0564 26.8779 26.18 26.7565 26.2959 26.6209C26.9281 25.8859 27.242 24.7867 27.242 23.3397C27.242 20.6687 26.1939 19.334 24.0975 19.3354C23.0708 19.334 22.2695 19.672 21.6934 20.3494C21.0667 21.0898 20.7473 22.1836 20.7473 23.6251C20.7473 25.0437 21.0263 26.0806 21.5852 26.7467C22.0981 27.3395 22.867 27.6414 23.8984 27.6414C24.2813 27.6421 24.6327 27.5947 24.9528 27.4992L26.8844 28.6269L27.4138 27.7158L27.4061 27.7147ZM22.6045 25.9023C22.2742 25.3784 22.1145 24.5351 22.1145 23.3725C22.1138 21.3403 22.731 20.3246 23.9663 20.3253C24.6105 20.3253 25.0884 20.5703 25.3903 21.0548C25.7152 21.5842 25.8803 22.4165 25.8803 23.5672C25.8803 25.6125 25.2591 26.6439 24.0286 26.6439C23.3789 26.6439 22.9064 26.3989 22.5991 25.9144L22.6045 25.9023ZM20.1884 25.2876C20.1884 25.9712 19.938 26.5356 19.4305 26.9676C18.9295 27.4062 18.2623 27.6283 17.4136 27.6283C16.6217 27.6283 15.8638 27.3778 15.1178 26.8758L15.4656 26.1812C16.1033 26.5006 16.6786 26.6603 17.2036 26.6603C17.6892 26.6596 18.0691 26.5531 18.3433 26.3409C18.6167 26.1244 18.7819 25.8225 18.7819 25.4408C18.7819 24.9617 18.4461 24.5515 17.8358 24.2103C17.2714 23.8975 16.1383 23.2533 16.1383 23.2533C15.5225 22.8037 15.2206 22.3247 15.2206 21.5328C15.2206 20.8787 15.4485 20.3526 15.9042 19.9545C16.3658 19.5444 16.952 19.3453 17.6816 19.3453C18.4074 19.339 19.1189 19.5471 19.7269 19.9436L19.4141 20.6381C18.9256 20.4222 18.3983 20.308 17.8642 20.3023C17.4486 20.3038 17.1296 20.4044 16.9072 20.6042C16.5736 20.9039 16.5484 21.0537 16.5484 21.3676C16.5484 21.8467 16.8908 22.2569 17.5164 22.609C18.0917 22.9219 19.2478 23.5836 19.2478 23.5836C19.88 24.0276 20.1939 24.5067 20.1939 25.2865L20.1884 25.2876ZM33.8669 16.7487C33.0859 16.7312 32.4822 16.8111 31.9758 17.0276C31.8336 17.0845 31.5995 17.0845 31.5766 17.2672C31.6564 17.347 31.6674 17.4728 31.7363 17.58C31.8555 17.7736 32.0556 18.0361 32.2438 18.1728C32.4494 18.3325 32.6539 18.4922 32.865 18.6289C33.2467 18.8629 33.6744 18.9997 34.0495 19.2326C34.2606 19.3694 34.4772 19.5454 34.6872 19.6887C34.7955 19.7631 34.8633 19.8944 35 19.9392V19.9108C34.9311 19.8254 34.9147 19.6997 34.8458 19.5979C34.7484 19.5006 34.6522 19.4153 34.5548 19.319C34.2698 18.9402 33.9277 18.6078 33.5409 18.3336C33.2281 18.1225 32.5445 17.8261 32.4188 17.4673L32.4013 17.4444C32.6123 17.4269 32.8628 17.347 33.0673 17.2901C33.3977 17.2048 33.705 17.2212 34.0473 17.1359C34.2044 17.0953 34.3602 17.0497 34.5144 16.9992V16.9139C34.3383 16.7378 34.207 16.4983 34.0244 16.3331C33.5201 15.8939 32.9829 15.4939 32.4177 15.1365C32.1103 14.9375 31.7231 14.8117 31.3983 14.6465C31.2845 14.5897 31.0855 14.5612 31.022 14.4639C30.8459 14.2473 30.7431 13.9684 30.6173 13.7114C30.3314 13.1552 30.0655 12.589 29.82 12.0139C29.6439 11.6322 29.5411 11.2559 29.3245 10.9026C28.3216 9.24451 27.2278 8.24264 25.5533 7.25717C25.1945 7.05154 24.7614 6.96623 24.3053 6.85795C24.0603 6.84701 23.8208 6.82951 23.5758 6.81857C23.4161 6.74967 23.263 6.5681 23.1263 6.47623C22.5684 6.12295 21.1323 5.36498 20.7277 6.36795C20.4652 7.0056 21.1148 7.62685 21.3434 7.94623C21.5086 8.17373 21.7197 8.42529 21.8389 8.67576C21.9078 8.84639 21.9242 9.02357 21.9931 9.19967C22.1473 9.62732 22.295 10.1053 22.5006 10.5045C22.6089 10.7101 22.7227 10.9256 22.8594 11.1083C22.9392 11.2165 23.0759 11.2625 23.1044 11.4386C22.9677 11.6376 22.9567 11.9286 22.8823 12.1681C22.5291 13.2728 22.6658 14.6345 23.1613 15.4494C23.3209 15.6944 23.6906 16.2303 24.1872 16.0247C24.6258 15.8486 24.5295 15.2951 24.6542 14.8051C24.6827 14.6859 24.6652 14.6115 24.7231 14.5317V14.5547C24.8653 14.8281 25.002 15.0906 25.1278 15.364C25.4242 15.8431 25.9536 16.3386 26.3922 16.6689C26.6263 16.845 26.8078 17.1479 27.0988 17.2551V17.2267H27.0758C27.0134 17.1414 26.9336 17.1009 26.8538 17.0331C26.669 16.8501 26.4976 16.6542 26.3408 16.4469C25.9361 15.9 25.5719 15.2962 25.2525 14.675C25.0988 14.368 24.9583 14.0545 24.8314 13.7354C24.7745 13.6217 24.7745 13.4445 24.6772 13.3876C24.5295 13.5987 24.313 13.7803 24.2102 14.0483C24.022 14.4639 24.0045 14.9823 23.9313 15.5183C23.8973 15.5292 23.9138 15.5183 23.8974 15.5412C23.5845 15.4614 23.4763 15.142 23.3614 14.8686C23.065 14.174 23.0191 13.0628 23.2706 12.2654C23.3395 12.0598 23.6294 11.4167 23.5156 11.2231C23.4533 11.035 23.2597 10.9267 23.1569 10.779C23.0256 10.5964 22.8944 10.3634 22.8036 10.1578C22.5695 9.61092 22.4558 9.00717 22.1999 8.46029C22.0861 8.20982 21.8805 7.94732 21.7153 7.71435C21.5272 7.45185 21.3227 7.26482 21.1794 6.95639C21.128 6.8481 21.0602 6.67201 21.14 6.55717C21.1575 6.47732 21.1969 6.44889 21.2767 6.42592C21.4025 6.31764 21.7667 6.45435 21.8925 6.5167C22.2513 6.65889 22.5531 6.7956 22.855 7.00123C22.9917 7.09857 23.1394 7.28014 23.3166 7.33154H23.5222C23.835 7.40045 24.1828 7.34904 24.4738 7.43982C24.9922 7.60498 25.4592 7.84451 25.8803 8.10592C27.1682 8.93245 28.2154 10.0838 28.9166 11.444C29.0358 11.6661 29.0872 11.8717 29.1955 12.1047C29.3945 12.5892 29.6516 13.0726 29.8561 13.5342C30.0606 13.9958 30.2553 14.4628 30.5506 14.8445C30.6983 15.0501 31.2802 15.1573 31.547 15.2601C31.7406 15.3509 32.0425 15.4308 32.2131 15.5336C32.5489 15.7392 32.8792 15.9722 33.1931 16.1997C33.3528 16.3079 33.8373 16.5529 33.8658 16.7465L33.8669 16.7487Z" fill="black"/>
</svg>
