<svg width="31" height="31" viewBox="0 0 31 31" fill="none" xmlns="http://www.w3.org/2000/svg">
<path d="M16.6088 2.2022C16.2727 2.00459 15.8899 1.90039 15.5 1.90039C15.1101 1.90039 14.7273 2.00459 14.3912 2.2022L4.70375 7.8997C4.3752 8.09288 4.10282 8.36856 3.91361 8.69941C3.72439 9.03026 3.6249 9.40481 3.625 9.78595V21.2134C3.625 21.9884 4.035 22.706 4.70375 23.0985L7.9825 25.0272C9.64875 26.0097 11.75 24.8072 11.75 22.8747V10.1835H9.25V22.8735L6.125 21.0347V9.9647L15.5 4.4497L24.875 9.9647V21.0347L15.5 26.5497L13.29 25.2497L12.0225 27.4035L14.3912 28.7972C14.7273 28.9948 15.1101 29.099 15.5 29.099C15.8899 29.099 16.2727 28.9948 16.6088 28.7972L26.2962 23.0985C26.6246 22.9054 26.8969 22.6299 27.0861 22.2993C27.2753 21.9687 27.3749 21.5944 27.375 21.2134V9.78595C27.3749 9.40502 27.2753 9.03073 27.0861 8.70012C26.8969 8.3695 26.6246 8.09403 26.2962 7.90095L16.6088 2.2022ZM18 9.8747C16.2962 9.8747 15.0888 10.3135 14.3125 11.0872C13.7263 11.6702 13.3951 12.4617 13.3912 13.2884C13.3912 13.9822 13.5875 14.6109 13.9938 15.1309C14.385 15.6309 14.9 15.9422 15.3937 16.1434C16.2937 16.5147 17.4187 16.6359 18.3237 16.7322L18.4325 16.7447C19.4712 16.8572 20.25 16.9534 20.7825 17.1759C21.0237 17.2759 21.1225 17.3684 21.1638 17.4222C21.19 17.4572 21.2413 17.5347 21.2413 17.7472C21.2413 18.0772 21.1287 18.2897 20.775 18.4909C20.3412 18.7372 19.575 18.9247 18.4212 18.9247C17.2775 18.9247 16.48 18.7122 16.0237 18.3972C15.67 18.1522 15.4088 17.7759 15.4775 16.9597L12.9863 16.7509C12.8513 18.3622 13.435 19.6459 14.6013 20.4534C15.665 21.1909 17.0637 21.4247 18.4212 21.4247C19.7675 21.4247 21.0362 21.2184 22.0125 20.6622C23.07 20.0622 23.7413 19.0597 23.7413 17.7472C23.7413 17.0509 23.5475 16.4209 23.145 15.8972C22.7575 15.3922 22.2425 15.0772 21.7475 14.8697C20.8375 14.4884 19.6975 14.3659 18.7875 14.2684L18.7 14.2584C17.6588 14.1459 16.88 14.0522 16.3438 13.8322C16.1013 13.7322 16.0025 13.6422 15.965 13.5922C15.94 13.5622 15.8912 13.4922 15.8912 13.2884C15.8912 13.1922 15.92 13.0147 16.0788 12.8572C16.2313 12.7047 16.7025 12.3747 18 12.3747C19.2375 12.3747 19.9588 12.5059 20.3713 12.7497C20.64 12.9097 20.9313 13.2034 20.9713 14.1659L23.4688 14.0659C23.4062 12.5084 22.8362 11.306 21.6462 10.601C20.6 9.97845 19.2625 9.8747 18 9.8747Z" fill="black"/>
</svg>
