<svg width="35" height="36" viewBox="0 0 35 36" fill="none" xmlns="http://www.w3.org/2000/svg">
<path d="M14.8108 13.7197C14.2654 13.7197 13.8804 13.7679 13.6719 13.816V17.4735C13.9125 17.5376 14.2333 17.5537 14.6344 17.5537C16.1102 17.5537 17.0085 16.8318 17.0085 15.5645C17.0085 14.3614 16.1744 13.7197 14.8108 13.7197Z" fill="black"/>
<path fill-rule="evenodd" clip-rule="evenodd" d="M9.87291 4.99441C14.9421 4.43285 20.0579 4.43285 25.1271 4.99441C27.8964 5.30358 30.1292 7.48379 30.4544 10.2634C31.0551 15.4035 31.0551 20.5961 30.4544 25.7363C30.1292 28.5159 27.8964 30.6961 25.1285 31.0067C20.0588 31.5684 14.9426 31.5684 9.87291 31.0067C7.10353 30.6961 4.87082 28.5159 4.54562 25.7377C3.94476 20.5971 3.94476 15.404 4.54562 10.2634C4.87082 7.48379 7.10353 5.30358 9.87291 4.99441ZM13.6719 23.104H11.7148V12.4363C12.4206 12.308 13.3992 12.2117 14.7306 12.2117C16.1744 12.2117 17.2331 12.5165 17.9229 13.094C18.5646 13.6234 18.9817 14.4736 18.9817 15.4842C18.9817 16.5109 18.6608 17.3611 18.0512 17.9386C17.2637 18.7246 16.03 19.0936 14.6344 19.0936C14.2654 19.0936 13.9285 19.0775 13.6719 19.0294V23.104ZM21.7379 23.104H19.7648V17.8102C19.7648 16.7515 19.7502 15.9975 19.7006 15.2917H21.4171L21.4812 16.7836H21.5454C21.9304 15.6767 22.8448 15.1152 23.6789 15.1152C23.8714 15.1152 23.9852 15.1313 24.1456 15.1634V17.0242C23.9553 16.9836 23.7613 16.9621 23.5667 16.96C22.6202 16.96 21.9785 17.5696 21.8021 18.4519C21.7621 18.6527 21.7406 18.8568 21.7379 19.0615V23.104Z" fill="black"/>
</svg>
