<svg width="35" height="36" viewBox="0 0 35 36" fill="none" xmlns="http://www.w3.org/2000/svg">
<path d="M15.2396 15.7833C15.2617 16.2261 15.1278 16.6626 14.8614 17.0169C14.595 17.3713 14.2128 17.6211 13.7813 17.7228C13.02 17.9477 12.226 18.0413 11.4333 17.9999C11.2292 17.9999 11.2146 17.8687 11.2146 17.7228V14.0041C11.2146 13.902 11.3167 13.727 11.375 13.727C12.2092 13.6336 13.0534 13.6879 13.8688 13.8874C14.2791 13.9999 14.6387 14.2492 14.888 14.5939C15.1373 14.9387 15.2614 15.3583 15.2396 15.7833Z" fill="black"/>
<path d="M24.7917 3.41699H10.2084C8.27448 3.41699 6.41982 4.18522 5.05237 5.55267C3.68491 6.92012 2.91669 8.77479 2.91669 10.7087V25.292C2.91669 27.2259 3.68491 29.0805 5.05237 30.448C6.41982 31.8154 8.27448 32.5837 10.2084 32.5837H24.7917C26.7256 32.5837 28.5802 31.8154 29.9477 30.448C31.3151 29.0805 32.0834 27.2259 32.0834 25.292V10.7087C32.0834 8.77479 31.3151 6.92012 29.9477 5.55267C28.5802 4.18522 26.7256 3.41699 24.7917 3.41699ZM16.0417 19.4587C15.3057 19.9261 14.4622 20.1972 13.5917 20.2462H11.6375C11.2292 20.2462 11.2292 20.2462 11.2292 20.6399V24.0232C11.2292 24.3149 11.1417 24.4024 10.85 24.4024H8.92502C8.64794 24.4024 8.57502 24.3003 8.57502 24.0378V11.7441C8.57502 11.4524 8.57502 11.3649 8.9396 11.3649H13.5042C14.3374 11.3875 15.1508 11.6235 15.8667 12.0503C16.4849 12.3987 16.9997 12.9049 17.3584 13.5172C17.7171 14.1295 17.9068 14.8261 17.9084 15.5357C17.9927 16.2985 17.8627 17.0697 17.533 17.7627C17.2032 18.4557 16.6868 19.043 16.0417 19.4587ZM24.675 24.2712C23.4068 24.7653 22.0182 24.8619 20.6938 24.5482C20.2961 24.4607 19.9072 24.3441 19.5271 24.1982C19.4685 24.1707 19.4169 24.1301 19.3765 24.0796C19.336 24.029 19.3077 23.9698 19.2938 23.9066V21.7045C19.7604 21.8795 20.1979 22.0837 20.65 22.2295C21.4077 22.4716 22.2099 22.5414 22.9979 22.4337C23.1554 22.4045 23.3061 22.3559 23.45 22.2878C23.5355 22.2504 23.6098 22.1915 23.6657 22.1167C23.7216 22.042 23.7571 21.9541 23.7689 21.8615C23.7806 21.769 23.7682 21.6749 23.7327 21.5886C23.6973 21.5023 23.6401 21.4267 23.5667 21.3691C23.2331 21.1381 22.8763 20.9426 22.5021 20.7857C21.9042 20.4941 21.2917 20.2607 20.7229 19.9253C20.2094 19.6755 19.7902 19.2667 19.5274 18.7597C19.2647 18.2526 19.1725 17.6743 19.2646 17.1107C19.3388 16.5683 19.5641 16.0577 19.9149 15.6373C20.2656 15.217 20.7276 14.9038 21.2479 14.7337C22.1858 14.4165 23.1866 14.3314 24.1646 14.4857C24.6313 14.4857 25.0834 14.6607 25.55 14.7482C25.7979 14.7482 25.8854 14.9524 25.8709 15.2003V16.9066C25.8709 17.2274 25.7979 17.2566 25.5063 17.1399C24.5954 16.7182 23.5886 16.5471 22.5896 16.6441C22.4481 16.6605 22.3101 16.6999 22.1813 16.7607C22.0938 16.7951 22.0168 16.8517 21.9579 16.925C21.899 16.9982 21.8603 17.0856 21.8456 17.1784C21.8308 17.2712 21.8406 17.3663 21.8739 17.4542C21.9072 17.5421 21.9629 17.6197 22.0354 17.6795C22.4574 17.9605 22.8997 18.2035 23.3625 18.4087C23.9167 18.6857 24.5 18.9045 25.0396 19.2107C25.5292 19.4335 25.9348 19.807 26.1972 20.2766C26.4595 20.7462 26.5649 21.2874 26.4979 21.8212C26.4518 22.3536 26.2543 22.8617 25.9287 23.2855C25.6031 23.7093 25.163 24.0311 24.6604 24.2128L24.675 24.2712Z" fill="black"/>
</svg>
