<svg width="31" height="31" viewBox="0 0 31 31" fill="none" xmlns="http://www.w3.org/2000/svg">
<path d="M15.5 13.1373C16.7875 13.1373 17.8375 14.1873 17.8375 15.4998C17.8375 16.7498 16.7875 17.8123 15.5 17.8123C14.2125 17.8123 13.1625 16.7498 13.1625 15.4998C13.1625 14.1873 14.2125 13.1373 15.5 13.1373ZM9.7125 25.4998C10.5 25.9748 12.225 25.2498 14.2125 23.3748C13.5625 22.6373 12.925 21.8373 12.325 20.9998C11.3178 20.9027 10.3164 20.7525 9.325 20.5498C8.6875 23.2248 8.925 25.0623 9.7125 25.4998ZM10.6 18.3248L10.2375 17.6873C10.1 18.0498 9.9625 18.4123 9.875 18.7623C10.2125 18.8373 10.5875 18.8998 10.975 18.9623L10.6 18.3248ZM18.775 17.3748L19.7875 15.4998L18.775 13.6248C18.4 12.9623 18 12.3748 17.6375 11.7873C16.9625 11.7498 16.25 11.7498 15.5 11.7498C14.75 11.7498 14.0375 11.7498 13.3625 11.7873C13 12.3748 12.6 12.9623 12.225 13.6248L11.2125 15.4998L12.225 17.3748C12.6 18.0373 13 18.6248 13.3625 19.2123C14.0375 19.2498 14.75 19.2498 15.5 19.2498C16.25 19.2498 16.9625 19.2498 17.6375 19.2123C18 18.6248 18.4 18.0373 18.775 17.3748ZM15.5 8.97481C15.2625 9.24981 15.0125 9.53731 14.7625 9.87481H16.2375C15.9875 9.53731 15.7375 9.24981 15.5 8.97481ZM15.5 22.0248C15.7375 21.7498 15.9875 21.4623 16.2375 21.1248H14.7625C15.0125 21.4623 15.2625 21.7498 15.5 22.0248ZM21.275 5.49981C20.5 5.02481 18.775 5.74981 16.7875 7.62481C17.4375 8.36231 18.075 9.16231 18.675 9.99981C19.7 10.0998 20.7125 10.2498 21.675 10.4498C22.3125 7.77481 22.075 5.93731 21.275 5.49981ZM20.4 12.6748L20.7625 13.3123C20.9 12.9498 21.0375 12.5873 21.125 12.2373C20.7875 12.1623 20.4125 12.0998 20.025 12.0373L20.4 12.6748ZM22.2125 3.86231C24.05 4.91231 24.25 7.67481 23.475 10.8998C26.65 11.8373 28.9375 13.3873 28.9375 15.4998C28.9375 17.6123 26.65 19.1623 23.475 20.0998C24.25 23.3248 24.05 26.0873 22.2125 27.1373C20.3875 28.1873 17.9 26.9873 15.5 24.6998C13.1 26.9873 10.6125 28.1873 8.775 27.1373C6.95 26.0873 6.75 23.3248 7.525 20.0998C4.35 19.1623 2.0625 17.6123 2.0625 15.4998C2.0625 13.3873 4.35 11.8373 7.525 10.8998C6.75 7.67481 6.95 4.91231 8.775 3.86231C10.6125 2.81231 13.1 4.01231 15.5 6.29981C17.9 4.01231 20.3875 2.81231 22.2125 3.86231ZM21.85 15.4998C22.275 16.4373 22.65 17.3748 22.9625 18.3248C25.5875 17.5373 27.0625 16.4123 27.0625 15.4998C27.0625 14.5873 25.5875 13.4623 22.9625 12.6748C22.65 13.6248 22.275 14.5623 21.85 15.4998ZM9.15 15.4998C8.725 14.5623 8.35 13.6248 8.0375 12.6748C5.4125 13.4623 3.9375 14.5873 3.9375 15.4998C3.9375 16.4123 5.4125 17.5373 8.0375 18.3248C8.35 17.3748 8.725 16.4373 9.15 15.4998ZM20.4 18.3248L20.025 18.9623C20.4125 18.8998 20.7875 18.8373 21.125 18.7623C21.0375 18.4123 20.9 18.0498 20.7625 17.6873L20.4 18.3248ZM16.7875 23.3748C18.775 25.2498 20.5 25.9748 21.275 25.4998C22.075 25.0623 22.3125 23.2248 21.675 20.5498C20.7125 20.7498 19.7 20.8998 18.675 20.9998C18.075 21.8373 17.4375 22.6373 16.7875 23.3748ZM10.6 12.6748L10.975 12.0373C10.5875 12.0998 10.2125 12.1623 9.875 12.2373C9.9625 12.5873 10.1 12.9498 10.2375 13.3123L10.6 12.6748ZM14.2125 7.62481C12.225 5.74981 10.5 5.02481 9.7125 5.49981C8.925 5.93731 8.6875 7.77481 9.325 10.4498C10.3164 10.2471 11.3178 10.0969 12.325 9.99981C12.925 9.16231 13.5625 8.36231 14.2125 7.62481Z" fill="black"/>
</svg>
