<svg width="31" height="31" viewBox="0 0 31 31" fill="none" xmlns="http://www.w3.org/2000/svg">
<g clip-path="url(#clip0_22_917)">
<mask id="mask0_22_917" style="mask-type:luminance" maskUnits="userSpaceOnUse" x="0" y="0" width="31" height="31">
<path d="M0.5 0.5H30.5V30.5H0.5V0.5Z" fill="white"/>
</mask>
<g mask="url(#mask0_22_917)">
<path d="M29.7863 0.500004H1.2125C1.11883 0.500004 1.02608 0.518475 0.93955 0.55436C0.853024 0.590244 0.774423 0.642838 0.708245 0.709133C0.642067 0.775427 0.589611 0.85412 0.553878 0.940709C0.518145 1.0273 0.499837 1.12008 0.500001 1.21375V29.7875C0.499836 29.8813 0.518186 29.9742 0.553997 30.0608C0.589808 30.1475 0.642376 30.2263 0.708686 30.2926C0.774997 30.3589 0.853746 30.4114 0.940416 30.4473C1.02709 30.4831 1.11997 30.5014 1.21375 30.5013H29.7875C29.8813 30.5014 29.9742 30.4831 30.0608 30.4473C30.1475 30.4114 30.2263 30.3589 30.2926 30.2926C30.3589 30.2263 30.4114 30.1475 30.4473 30.0608C30.4831 29.9742 30.5014 29.8813 30.5012 29.7875V1.2125C30.5012 1.11873 30.4827 1.02587 30.4468 0.939264C30.4108 0.852656 30.3581 0.773999 30.2917 0.707805C30.2253 0.64161 30.1464 0.58918 30.0597 0.553521C29.9729 0.517862 29.88 0.499675 29.7863 0.500004ZM18.3575 16.5325H14.7863V27.6425H11.9288V16.5325H8.3575V14.0713H18.3575V16.5325ZM19.1575 27.0075V24.0388C19.1575 24.0388 20.78 25.2613 22.7263 25.2613C24.6725 25.2613 24.5975 23.9888 24.5975 23.8138C24.5975 21.9675 19.0825 21.9675 19.0825 17.875C19.0825 12.31 27.1188 14.5063 27.1188 14.5063L27.0188 17.1513C27.0188 17.1513 25.6713 16.2525 24.1488 16.2525C22.6263 16.2525 22.0775 16.9775 22.0775 17.75C22.0775 19.7463 27.6425 19.5475 27.6425 23.565C27.6425 29.7525 19.1575 27.0088 19.1575 27.0088" fill="black"/>
</g>
</g>
<defs>
<clipPath id="clip0_22_917">
<rect width="30" height="30" fill="white" transform="translate(0.5 0.5)"/>
</clipPath>
</defs>
</svg>
